<?xml version="1.0" standalone="no"?>
<!DOCTYPE svg PUBLIC "-//W3C//DTD SVG 20010904//EN"
 "http://www.w3.org/TR/2001/REC-SVG-20010904/DTD/svg10.dtd">
<svg version="1.0" xmlns="http://www.w3.org/2000/svg"
 width="148.000000pt" height="135.000000pt" viewBox="0 0 148.000000 135.000000"
 preserveAspectRatio="xMidYMid meet">
<metadata>
Created by potrace 1.10, written by Peter Selinger 2001-2011
</metadata>
<g transform="translate(0.000000,135.000000) scale(0.100000,-0.100000)"
fill="#000000" stroke="none">
<path d="M605 1285 c-69 -16 -156 -53 -218 -92 -59 -37 -159 -142 -186 -194
-13 -24 -26 -46 -30 -49 -4 -3 -18 -41 -31 -85 -34 -110 -35 -298 -2 -392 46
-132 137 -252 242 -322 151 -100 198 -88 187 46 -4 59 -9 70 -34 91 -136 111
-183 172 -208 268 -78 302 182 590 483 535 65 -12 173 -63 208 -99 32 -32 78
-62 95 -62 9 0 39 17 68 38 67 49 68 75 4 143 -107 114 -252 178 -423 185 -59
2 -117 -2 -155 -11z m265 -31 c105 -24 199 -76 281 -153 41 -38 72 -71 69 -73
-3 -2 -30 -20 -61 -40 l-56 -36 -52 48 c-105 98 -247 144 -381 121 -316 -52
-482 -383 -335 -671 31 -60 112 -145 168 -175 l37 -20 0 -78 c0 -91 6 -89 -95
-32 -221 124 -341 370 -301 617 56 343 392 571 726 492z"/>
<path d="M412 804 c-19 -13 -22 -24 -22 -83 0 -95 6 -100 150 -103 l115 -3 5
-268 5 -269 25 -20 c33 -27 135 -22 156 7 13 18 21 231 18 465 0 40 4 69 12
77 9 9 50 13 137 13 152 0 157 -3 128 -86 -28 -77 -58 -121 -136 -196 l-65
-63 0 -77 c0 -67 3 -79 21 -92 20 -14 26 -13 73 11 212 106 351 361 329 599
-10 112 26 104 -486 104 -384 0 -445 -2 -465 -16z m923 -81 c22 -229 -98 -456
-303 -576 -35 -20 -65 -37 -68 -37 -2 0 -4 35 -4 79 l0 78 41 29 c94 65 175
196 186 300 l6 54 -179 0 -179 0 0 -287 0 -288 -72 -3 -73 -3 0 291 0 290
-134 0 -134 0 -4 70 -3 70 456 0 457 0 7 -67z"/>
</g>
</svg>
